solid STL file created by Vectorworks 2022 SP6 (Build 679396) (64-Bit)
 facet normal 0.99452189536827 0.00000000000000 0.10452846326772
  outer loop
   vertex -1664.44536900183448 739.00000000000000 29.67208887327200
   vertex -1664.50000000000000 739.00000000000000 30.19186810031642
   vertex -1664.50000000000000 727.00000000000000 30.19186810031642
  endloop
 endfacet
 facet normal 0.95105651629494 0.00000000000000 0.30901699437560
  outer loop
   vertex -1664.28386364410608 739.00000000000000 29.17502649262687
   vertex -1664.44536900183448 739.00000000000000 29.67208887327200
   vertex -1664.44536900183448 727.00000000000000 29.67208887327200
  endloop
 endfacet
 facet normal 0.86602540378467 0.00000000000000 0.49999999999959
  outer loop
   vertex -1664.02254248593727 739.00000000000000 28.72240496958526
   vertex -1664.28386364410608 739.00000000000000 29.17502649262687
   vertex -1664.28386364410608 727.00000000000000 29.17502649262687
  endloop
 endfacet
 facet normal 0.74314482547735 0.00000000000000 0.66913060635891
  outer loop
   vertex -1663.67282651589699 739.00000000000000 28.33400603662295
   vertex -1664.02254248593727 739.00000000000000 28.72240496958526
   vertex -1664.02254248593727 727.00000000000000 28.72240496958526
  endloop
 endfacet
 facet normal 0.58778525229230 -0.00000000000000 0.80901699437507
  outer loop
   vertex -1663.24999999999955 739.00000000000000 28.02680459085526
   vertex -1663.67282651589699 739.00000000000000 28.33400603662295
   vertex -1663.67282651589699 727.00000000000000 28.33400603662295
  endloop
 endfacet
 facet normal 0.40673664307599 0.00000000000000 0.91354545764252
  outer loop
   vertex -1662.77254248593727 739.00000000000000 27.81422680957851
   vertex -1663.24999999999955 739.00000000000000 28.02680459085526
   vertex -1663.24999999999955 727.00000000000000 28.02680459085526
  endloop
 endfacet
 facet normal 0.20791169081769 0.00000000000000 0.97814760073382
  outer loop
   vertex -1662.26132115816904 739.00000000000000 27.70556336189575
   vertex -1662.77254248593727 739.00000000000000 27.81422680957851
   vertex -1662.77254248593727 727.00000000000000 27.81422680957851
  endloop
 endfacet
 facet normal 0.00000000000000 0.00000000000000 1.00000000000000
  outer loop
   vertex -1661.73867884183073 739.00000000000000 27.70556336189575
   vertex -1662.26132115816904 739.00000000000000 27.70556336189575
   vertex -1662.26132115816904 727.00000000000000 27.70556336189575
  endloop
 endfacet
 facet normal -0.20791169081769 0.00000000000000 0.97814760073382
  outer loop
   vertex -1661.22745751406251 739.00000000000000 27.81422680957851
   vertex -1661.73867884183073 739.00000000000000 27.70556336189575
   vertex -1661.73867884183073 727.00000000000000 27.70556336189575
  endloop
 endfacet
 facet normal -0.40673664307570 0.00000000000000 0.91354545764264
  outer loop
   vertex -1660.74999999999955 739.00000000000000 28.02680459085538
   vertex -1661.22745751406251 739.00000000000000 27.81422680957851
   vertex -1661.22745751406251 727.00000000000000 27.81422680957851
  endloop
 endfacet
 facet normal -0.58778525229277 0.00000000000000 0.80901699437473
  outer loop
   vertex -1660.32717348410279 739.00000000000000 28.33400603662295
   vertex -1660.74999999999955 739.00000000000000 28.02680459085538
   vertex -1660.74999999999955 727.00000000000000 28.02680459085538
  endloop
 endfacet
 facet normal -0.74314482547735 0.00000000000000 0.66913060635891
  outer loop
   vertex -1659.97745751406251 739.00000000000000 28.72240496958526
   vertex -1660.32717348410279 739.00000000000000 28.33400603662295
   vertex -1660.32717348410279 727.00000000000000 28.33400603662295
  endloop
 endfacet
 facet normal -0.86602540378448 0.00000000000000 0.49999999999992
  outer loop
   vertex -1659.71613635589347 739.00000000000000 29.17502649262687
   vertex -1659.97745751406251 739.00000000000000 28.72240496958526
   vertex -1659.97745751406251 727.00000000000000 28.72240496958526
  endloop
 endfacet
 facet normal -0.95105651629520 -0.00000000000000 0.30901699437481
  outer loop
   vertex -1659.55463099816552 739.00000000000000 29.67208887327201
   vertex -1659.71613635589347 739.00000000000000 29.17502649262687
   vertex -1659.71613635589347 727.00000000000000 29.17502649262687
  endloop
 endfacet
 facet normal -0.99452189536827 0.00000000000000 0.10452846326772
  outer loop
   vertex -1659.50000000000000 739.00000000000000 30.19186810031642
   vertex -1659.55463099816552 739.00000000000000 29.67208887327201
   vertex -1659.55463099816552 727.00000000000000 29.67208887327201
  endloop
 endfacet
 facet normal -0.99452189536827 0.00000000000000 -0.10452846326772
  outer loop
   vertex -1659.55463099816552 739.00000000000000 30.71164732736083
   vertex -1659.50000000000000 739.00000000000000 30.19186810031642
   vertex -1659.50000000000000 727.00000000000000 30.19186810031642
  endloop
 endfacet
 facet normal -0.95105651629520 0.00000000000000 -0.30901699437482
  outer loop
   vertex -1659.71613635589347 739.00000000000000 31.20870970800596
   vertex -1659.55463099816552 739.00000000000000 30.71164732736083
   vertex -1659.55463099816552 727.00000000000000 30.71164732736083
  endloop
 endfacet
 facet normal -0.86602540378448 0.00000000000000 -0.49999999999992
  outer loop
   vertex -1659.97745751406251 739.00000000000000 31.66133123104758
   vertex -1659.71613635589347 739.00000000000000 31.20870970800596
   vertex -1659.71613635589347 727.00000000000000 31.20870970800596
  endloop
 endfacet
 facet normal -0.74314482547735 0.00000000000000 -0.66913060635891
  outer loop
   vertex -1660.32717348410279 739.00000000000000 32.04973016400989
   vertex -1659.97745751406251 739.00000000000000 31.66133123104758
   vertex -1659.97745751406251 727.00000000000000 31.66133123104758
  endloop
 endfacet
 facet normal -0.58778525229251 0.00000000000000 -0.80901699437492
  outer loop
   vertex -1660.75000000000000 739.00000000000000 32.35693160977758
   vertex -1660.32717348410279 739.00000000000000 32.04973016400989
   vertex -1660.32717348410279 727.00000000000000 32.04973016400989
  endloop
 endfacet
 facet normal -0.40673664307583 0.00000000000000 -0.91354545764259
  outer loop
   vertex -1661.22745751406251 739.00000000000000 32.56950939105432
   vertex -1660.75000000000000 739.00000000000000 32.35693160977758
   vertex -1660.75000000000000 727.00000000000000 32.35693160977758
  endloop
 endfacet
 facet normal -0.20791169081770 0.00000000000000 -0.97814760073382
  outer loop
   vertex -1661.73867884183073 739.00000000000000 32.67817283873709
   vertex -1661.22745751406251 739.00000000000000 32.56950939105432
   vertex -1661.22745751406251 727.00000000000000 32.56950939105432
  endloop
 endfacet
 facet normal 0.00000000000000 0.00000000000000 -1.00000000000000
  outer loop
   vertex -1662.26132115816904 739.00000000000000 32.67817283873709
   vertex -1661.73867884183073 739.00000000000000 32.67817283873709
   vertex -1661.73867884183073 727.00000000000000 32.67817283873709
  endloop
 endfacet
 facet normal 0.20791169081770 0.00000000000000 -0.97814760073382
  outer loop
   vertex -1662.77254248593727 739.00000000000000 32.56950939105432
   vertex -1662.26132115816904 739.00000000000000 32.67817283873709
   vertex -1662.26132115816904 727.00000000000000 32.67817283873709
  endloop
 endfacet
 facet normal 0.40673664307599 -0.00000000000000 -0.91354545764252
  outer loop
   vertex -1663.24999999999955 739.00000000000000 32.35693160977758
   vertex -1662.77254248593727 739.00000000000000 32.56950939105432
   vertex -1662.77254248593727 727.00000000000000 32.56950939105432
  endloop
 endfacet
 facet normal 0.58778525229230 0.00000000000000 -0.80901699437507
  outer loop
   vertex -1663.67282651589699 739.00000000000000 32.04973016400989
   vertex -1663.24999999999955 739.00000000000000 32.35693160977758
   vertex -1663.24999999999955 727.00000000000000 32.35693160977758
  endloop
 endfacet
 facet normal 0.74314482547735 0.00000000000000 -0.66913060635891
  outer loop
   vertex -1664.02254248593727 739.00000000000000 31.66133123104758
   vertex -1663.67282651589699 739.00000000000000 32.04973016400989
   vertex -1663.67282651589699 727.00000000000000 32.04973016400989
  endloop
 endfacet
 facet normal 0.86602540378467 0.00000000000000 -0.49999999999959
  outer loop
   vertex -1664.28386364410608 739.00000000000000 31.20870970800596
   vertex -1664.02254248593727 739.00000000000000 31.66133123104758
   vertex -1664.02254248593727 727.00000000000000 31.66133123104758
  endloop
 endfacet
 facet normal 0.95105651629494 0.00000000000000 -0.30901699437560
  outer loop
   vertex -1664.44536900183448 739.00000000000000 30.71164732736083
   vertex -1664.28386364410608 739.00000000000000 31.20870970800596
   vertex -1664.28386364410608 727.00000000000000 31.20870970800596
  endloop
 endfacet
 facet normal 0.99452189536827 -0.00000000000000 -0.10452846326772
  outer loop
   vertex -1664.50000000000000 739.00000000000000 30.19186810031642
   vertex -1664.44536900183448 739.00000000000000 30.71164732736083
   vertex -1664.44536900183448 727.00000000000000 30.71164732736083
  endloop
 endfacet
 facet normal 0.99452189536827 -0.00000000000000 -0.10452846326772
  outer loop
   vertex -1664.44536900183448 727.00000000000000 30.71164732736083
   vertex -1664.50000000000000 727.00000000000000 30.19186810031642
   vertex -1664.50000000000000 739.00000000000000 30.19186810031642
  endloop
 endfacet
 facet normal 0.95105651629494 0.00000000000000 -0.30901699437560
  outer loop
   vertex -1664.28386364410608 727.00000000000000 31.20870970800596
   vertex -1664.44536900183448 727.00000000000000 30.71164732736083
   vertex -1664.44536900183448 739.00000000000000 30.71164732736083
  endloop
 endfacet
 facet normal 0.86602540378467 0.00000000000000 -0.49999999999959
  outer loop
   vertex -1664.02254248593727 727.00000000000000 31.66133123104758
   vertex -1664.28386364410608 727.00000000000000 31.20870970800596
   vertex -1664.28386364410608 739.00000000000000 31.20870970800596
  endloop
 endfacet
 facet normal 0.74314482547735 0.00000000000000 -0.66913060635891
  outer loop
   vertex -1663.67282651589699 727.00000000000000 32.04973016400989
   vertex -1664.02254248593727 727.00000000000000 31.66133123104758
   vertex -1664.02254248593727 739.00000000000000 31.66133123104758
  endloop
 endfacet
 facet normal 0.58778525229230 0.00000000000000 -0.80901699437507
  outer loop
   vertex -1663.24999999999955 727.00000000000000 32.35693160977758
   vertex -1663.67282651589699 727.00000000000000 32.04973016400989
   vertex -1663.67282651589699 739.00000000000000 32.04973016400989
  endloop
 endfacet
 facet normal 0.40673664307599 -0.00000000000000 -0.91354545764252
  outer loop
   vertex -1662.77254248593727 727.00000000000000 32.56950939105432
   vertex -1663.24999999999955 727.00000000000000 32.35693160977758
   vertex -1663.24999999999955 739.00000000000000 32.35693160977758
  endloop
 endfacet
 facet normal 0.20791169081770 0.00000000000000 -0.97814760073382
  outer loop
   vertex -1662.26132115816904 727.00000000000000 32.67817283873709
   vertex -1662.77254248593727 727.00000000000000 32.56950939105432
   vertex -1662.77254248593727 739.00000000000000 32.56950939105432
  endloop
 endfacet
 facet normal 0.00000000000000 0.00000000000000 -1.00000000000000
  outer loop
   vertex -1661.73867884183073 727.00000000000000 32.67817283873709
   vertex -1662.26132115816904 727.00000000000000 32.67817283873709
   vertex -1662.26132115816904 739.00000000000000 32.67817283873709
  endloop
 endfacet
 facet normal -0.20791169081770 0.00000000000000 -0.97814760073382
  outer loop
   vertex -1661.22745751406251 727.00000000000000 32.56950939105432
   vertex -1661.73867884183073 727.00000000000000 32.67817283873709
   vertex -1661.73867884183073 739.00000000000000 32.67817283873709
  endloop
 endfacet
 facet normal -0.40673664307583 0.00000000000000 -0.91354545764259
  outer loop
   vertex -1660.75000000000000 727.00000000000000 32.35693160977758
   vertex -1661.22745751406251 727.00000000000000 32.56950939105432
   vertex -1661.22745751406251 739.00000000000000 32.56950939105432
  endloop
 endfacet
 facet normal -0.58778525229251 0.00000000000000 -0.80901699437492
  outer loop
   vertex -1660.32717348410279 727.00000000000000 32.04973016400989
   vertex -1660.75000000000000 727.00000000000000 32.35693160977758
   vertex -1660.75000000000000 739.00000000000000 32.35693160977758
  endloop
 endfacet
 facet normal -0.74314482547735 0.00000000000000 -0.66913060635891
  outer loop
   vertex -1659.97745751406251 727.00000000000000 31.66133123104758
   vertex -1660.32717348410279 727.00000000000000 32.04973016400989
   vertex -1660.32717348410279 739.00000000000000 32.04973016400989
  endloop
 endfacet
 facet normal -0.86602540378448 0.00000000000000 -0.49999999999992
  outer loop
   vertex -1659.71613635589347 727.00000000000000 31.20870970800596
   vertex -1659.97745751406251 727.00000000000000 31.66133123104758
   vertex -1659.97745751406251 739.00000000000000 31.66133123104758
  endloop
 endfacet
 facet normal -0.95105651629520 0.00000000000000 -0.30901699437482
  outer loop
   vertex -1659.55463099816552 727.00000000000000 30.71164732736083
   vertex -1659.71613635589347 727.00000000000000 31.20870970800596
   vertex -1659.71613635589347 739.00000000000000 31.20870970800596
  endloop
 endfacet
 facet normal -0.99452189536827 0.00000000000000 -0.10452846326772
  outer loop
   vertex -1659.50000000000000 727.00000000000000 30.19186810031642
   vertex -1659.55463099816552 727.00000000000000 30.71164732736083
   vertex -1659.55463099816552 739.00000000000000 30.71164732736083
  endloop
 endfacet
 facet normal -0.99452189536827 0.00000000000000 0.10452846326772
  outer loop
   vertex -1659.55463099816552 727.00000000000000 29.67208887327201
   vertex -1659.50000000000000 727.00000000000000 30.19186810031642
   vertex -1659.50000000000000 739.00000000000000 30.19186810031642
  endloop
 endfacet
 facet normal -0.95105651629520 -0.00000000000000 0.30901699437481
  outer loop
   vertex -1659.71613635589347 727.00000000000000 29.17502649262687
   vertex -1659.55463099816552 727.00000000000000 29.67208887327201
   vertex -1659.55463099816552 739.00000000000000 29.67208887327201
  endloop
 endfacet
 facet normal -0.86602540378448 0.00000000000000 0.49999999999992
  outer loop
   vertex -1659.97745751406251 727.00000000000000 28.72240496958526
   vertex -1659.71613635589347 727.00000000000000 29.17502649262687
   vertex -1659.71613635589347 739.00000000000000 29.17502649262687
  endloop
 endfacet
 facet normal -0.74314482547735 0.00000000000000 0.66913060635891
  outer loop
   vertex -1660.32717348410279 727.00000000000000 28.33400603662295
   vertex -1659.97745751406251 727.00000000000000 28.72240496958526
   vertex -1659.97745751406251 739.00000000000000 28.72240496958526
  endloop
 endfacet
 facet normal -0.58778525229277 0.00000000000000 0.80901699437473
  outer loop
   vertex -1660.74999999999955 727.00000000000000 28.02680459085538
   vertex -1660.32717348410279 727.00000000000000 28.33400603662295
   vertex -1660.32717348410279 739.00000000000000 28.33400603662295
  endloop
 endfacet
 facet normal -0.40673664307570 0.00000000000000 0.91354545764264
  outer loop
   vertex -1661.22745751406251 727.00000000000000 27.81422680957851
   vertex -1660.74999999999955 727.00000000000000 28.02680459085538
   vertex -1660.74999999999955 739.00000000000000 28.02680459085538
  endloop
 endfacet
 facet normal -0.20791169081769 0.00000000000000 0.97814760073382
  outer loop
   vertex -1661.73867884183073 727.00000000000000 27.70556336189575
   vertex -1661.22745751406251 727.00000000000000 27.81422680957851
   vertex -1661.22745751406251 739.00000000000000 27.81422680957851
  endloop
 endfacet
 facet normal 0.00000000000000 0.00000000000000 1.00000000000000
  outer loop
   vertex -1662.26132115816904 727.00000000000000 27.70556336189575
   vertex -1661.73867884183073 727.00000000000000 27.70556336189575
   vertex -1661.73867884183073 739.00000000000000 27.70556336189575
  endloop
 endfacet
 facet normal 0.20791169081769 0.00000000000000 0.97814760073382
  outer loop
   vertex -1662.77254248593727 727.00000000000000 27.81422680957851
   vertex -1662.26132115816904 727.00000000000000 27.70556336189575
   vertex -1662.26132115816904 739.00000000000000 27.70556336189575
  endloop
 endfacet
 facet normal 0.40673664307599 0.00000000000000 0.91354545764252
  outer loop
   vertex -1663.24999999999955 727.00000000000000 28.02680459085526
   vertex -1662.77254248593727 727.00000000000000 27.81422680957851
   vertex -1662.77254248593727 739.00000000000000 27.81422680957851
  endloop
 endfacet
 facet normal 0.58778525229230 -0.00000000000000 0.80901699437507
  outer loop
   vertex -1663.67282651589699 727.00000000000000 28.33400603662295
   vertex -1663.24999999999955 727.00000000000000 28.02680459085526
   vertex -1663.24999999999955 739.00000000000000 28.02680459085526
  endloop
 endfacet
 facet normal 0.74314482547735 0.00000000000000 0.66913060635891
  outer loop
   vertex -1664.02254248593727 727.00000000000000 28.72240496958526
   vertex -1663.67282651589699 727.00000000000000 28.33400603662295
   vertex -1663.67282651589699 739.00000000000000 28.33400603662295
  endloop
 endfacet
 facet normal 0.86602540378467 0.00000000000000 0.49999999999959
  outer loop
   vertex -1664.28386364410608 727.00000000000000 29.17502649262687
   vertex -1664.02254248593727 727.00000000000000 28.72240496958526
   vertex -1664.02254248593727 739.00000000000000 28.72240496958526
  endloop
 endfacet
 facet normal 0.95105651629494 0.00000000000000 0.30901699437560
  outer loop
   vertex -1664.44536900183448 727.00000000000000 29.67208887327200
   vertex -1664.28386364410608 727.00000000000000 29.17502649262687
   vertex -1664.28386364410608 739.00000000000000 29.17502649262687
  endloop
 endfacet
 facet normal 0.99452189536827 0.00000000000000 0.10452846326772
  outer loop
   vertex -1664.50000000000000 727.00000000000000 30.19186810031642
   vertex -1664.44536900183448 727.00000000000000 29.67208887327200
   vertex -1664.44536900183448 739.00000000000000 29.67208887327200
  endloop
 endfacet
 facet normal 0.00000000000000 -1.00000000000000 0.00000000000000
  outer loop
   vertex -1662.26132115816904 727.00000000000000 32.67817283873708
   vertex -1662.77254248593727 727.00000000000000 54.62235870926210
   vertex -1663.24999999999955 727.00000000000000 54.83493649053885
  endloop
 endfacet
 facet normal 0.00000000000000 -1.00000000000000 0.00000000000000
  outer loop
   vertex -1661.73867884183073 727.00000000000000 54.51369526157934
   vertex -1661.22745751406251 727.00000000000000 32.56950939105432
   vertex -1660.75000000000000 727.00000000000000 32.35693160977758
  endloop
 endfacet
 facet normal 0.00000000000000 -1.00000000000000 0.00000000000000
  outer loop
   vertex -1662.26132115816904 727.00000000000000 32.67817283873708
   vertex -1662.26132115816904 727.00000000000000 54.51369526157934
   vertex -1662.77254248593727 727.00000000000000 54.62235870926210
  endloop
 endfacet
 facet normal -0.00000000000000 -1.00000000000000 0.00000000000000
  outer loop
   vertex -1661.73867884183073 727.00000000000000 54.51369526157934
   vertex -1662.26132115816904 727.00000000000000 54.51369526157934
   vertex -1662.26132115816904 727.00000000000000 32.67817283873708
  endloop
 endfacet
 facet normal 0.00000000000000 -1.00000000000000 0.00000000000000
  outer loop
   vertex -1661.73867884183073 727.00000000000000 54.51369526157934
   vertex -1661.73867884183073 727.00000000000000 32.67817283873708
   vertex -1661.22745751406251 727.00000000000000 32.56950939105432
  endloop
 endfacet
 facet normal 0.00000000000000 -1.00000000000000 0.00000000000000
  outer loop
   vertex -1662.26132115816904 727.00000000000000 32.67817283873708
   vertex -1661.73867884183073 727.00000000000000 32.67817283873708
   vertex -1661.73867884183073 727.00000000000000 54.51369526157934
  endloop
 endfacet
 facet normal 0.00000000000000 -1.00000000000000 -0.00000000000000
  outer loop
   vertex -1661.22745751406251 727.00000000000000 54.62235870926210
   vertex -1661.73867884183073 727.00000000000000 54.51369526157934
   vertex -1659.50000000000000 727.00000000000000 30.19186810031642
  endloop
 endfacet
 facet normal 0.00000000000000 -1.00000000000000 0.00000000000000
  outer loop
   vertex -1653.99999999999977 727.00000000000000 67.00000000000000
   vertex -1661.22745751406251 727.00000000000000 59.37764129073792
   vertex -1660.75000000000000 727.00000000000000 59.16506350946116
  endloop
 endfacet
 facet normal -0.00000000000000 -1.00000000000000 -0.00000000000000
  outer loop
   vertex -1663.24999999999955 727.00000000000000 54.83493649053885
   vertex -1663.67282651589699 727.00000000000000 55.14213793630653
   vertex -1662.26132115816904 727.00000000000000 32.67817283873708
  endloop
 endfacet
 facet normal 0.00000000000000 -1.00000000000000 0.00000000000000
  outer loop
   vertex -1653.99999999999977 727.00000000000000 20.19186810031643
   vertex -1659.55463099816552 727.00000000000000 29.67208887327200
   vertex -1659.71613635589347 727.00000000000000 29.17502649262687
  endloop
 endfacet
 facet normal 0.00000000000000 -1.00000000000000 0.00000000000000
  outer loop
   vertex -1659.50000000000000 727.00000000000000 30.19186810031642
   vertex -1653.99999999999977 727.00000000000000 20.19186810031643
   vertex -1661.22745751406251 727.00000000000000 54.62235870926210
  endloop
 endfacet
 facet normal 0.00000000000000 -1.00000000000000 0.00000000000000
  outer loop
   vertex -1653.99999999999977 727.00000000000000 67.00000000000000
   vertex -1661.73867884183073 727.00000000000000 59.48630473842069
   vertex -1661.22745751406251 727.00000000000000 59.37764129073792
  endloop
 endfacet
 facet normal 0.00000000000000 -1.00000000000000 0.00000000000000
  outer loop
   vertex -1669.99999999999977 727.00000000000000 67.00000000000001
   vertex -1662.26132115816904 727.00000000000000 59.48630473842069
   vertex -1661.73867884183073 727.00000000000000 59.48630473842069
  endloop
 endfacet
 facet normal 0.00000000000000 -1.00000000000000 0.00000000000000
  outer loop
   vertex -1669.99999999999977 727.00000000000000 67.00000000000001
   vertex -1663.67282651589699 727.00000000000000 58.85786206369349
   vertex -1663.24999999999955 727.00000000000000 59.16506350946116
  endloop
 endfacet
 facet normal 0.00000000000000 -1.00000000000000 0.00000000000000
  outer loop
   vertex -1663.67282651589699 727.00000000000000 55.14213793630653
   vertex -1662.77254248593727 727.00000000000000 32.56950939105432
   vertex -1662.26132115816904 727.00000000000000 32.67817283873708
  endloop
 endfacet
 facet normal 0.00000000000000 -1.00000000000000 0.00000000000000
  outer loop
   vertex -1663.67282651589699 727.00000000000000 55.14213793630653
   vertex -1663.67282651589699 727.00000000000000 32.04973016400989
   vertex -1663.24999999999955 727.00000000000000 32.35693160977757
  endloop
 endfacet
 facet normal 0.00000000000000 -1.00000000000000 -0.00000000000000
  outer loop
   vertex -1659.50000000000000 727.00000000000000 30.19186810031642
   vertex -1659.55463099816552 727.00000000000000 29.67208887327200
   vertex -1653.99999999999977 727.00000000000000 20.19186810031643
  endloop
 endfacet
 facet normal 0.00000000000000 -1.00000000000000 0.00000000000000
  outer loop
   vertex -1661.73867884183073 727.00000000000000 59.48630473842069
   vertex -1653.99999999999977 727.00000000000000 67.00000000000000
   vertex -1669.99999999999977 727.00000000000000 67.00000000000001
  endloop
 endfacet
 facet normal 0.00000000000000 -1.00000000000000 0.00000000000000
  outer loop
   vertex -1663.24999999999955 727.00000000000000 59.16506350946116
   vertex -1662.77254248593727 727.00000000000000 59.37764129073792
   vertex -1669.99999999999977 727.00000000000000 67.00000000000001
  endloop
 endfacet
 facet normal 0.00000000000000 -1.00000000000000 0.00000000000000
  outer loop
   vertex -1663.24999999999955 727.00000000000000 32.35693160977757
   vertex -1662.77254248593727 727.00000000000000 32.56950939105432
   vertex -1663.67282651589699 727.00000000000000 55.14213793630653
  endloop
 endfacet
 facet normal 0.00000000000000 -1.00000000000000 0.00000000000000
  outer loop
   vertex -1653.99999999999977 727.00000000000000 20.19186810031643
   vertex -1660.74999999999955 727.00000000000000 28.02680459085538
   vertex -1661.22745751406251 727.00000000000000 27.81422680957851
  endloop
 endfacet
 facet normal 0.00000000000000 -1.00000000000000 0.00000000000000
  outer loop
   vertex -1653.99999999999977 727.00000000000000 20.19186810031643
   vertex -1659.97745751406251 727.00000000000000 28.72240496958526
   vertex -1660.32717348410279 727.00000000000000 28.33400603662295
  endloop
 endfacet
 facet normal 0.00000000000000 -1.00000000000000 0.00000000000000
  outer loop
   vertex -1653.99999999999977 727.00000000000000 20.19186810031643
   vertex -1660.74999999999955 727.00000000000000 54.83493649053897
   vertex -1661.22745751406251 727.00000000000000 54.62235870926210
  endloop
 endfacet
 facet normal 0.00000000000000 -1.00000000000000 0.00000000000000
  outer loop
   vertex -1653.99999999999977 727.00000000000000 20.19186810031643
   vertex -1659.97745751406251 727.00000000000000 55.53053686926886
   vertex -1660.32717348410279 727.00000000000000 55.14213793630653
  endloop
 endfacet
 facet normal 0.00000000000000 -1.00000000000000 0.00000000000000
  outer loop
   vertex -1662.77254248593727 727.00000000000000 59.37764129073792
   vertex -1662.26132115816904 727.00000000000000 59.48630473842069
   vertex -1669.99999999999977 727.00000000000000 67.00000000000001
  endloop
 endfacet
 facet normal 0.00000000000000 -1.00000000000000 0.00000000000000
  outer loop
   vertex -1660.75000000000000 727.00000000000000 32.35693160977758
   vertex -1660.32717348410279 727.00000000000000 32.04973016400989
   vertex -1661.73867884183073 727.00000000000000 54.51369526157934
  endloop
 endfacet
 facet normal 0.00000000000000 -1.00000000000000 0.00000000000000
  outer loop
   vertex -1664.02254248593727 727.00000000000000 55.53053686926884
   vertex -1669.99999999999977 727.00000000000000 20.19186810031643
   vertex -1664.44536900183448 727.00000000000000 30.71164732736083
  endloop
 endfacet
 facet normal 0.00000000000000 -1.00000000000000 -0.00000000000000
  outer loop
   vertex -1660.32717348410279 727.00000000000000 28.33400603662295
   vertex -1660.74999999999955 727.00000000000000 28.02680459085538
   vertex -1653.99999999999977 727.00000000000000 20.19186810031643
  endloop
 endfacet
 facet normal 0.00000000000000 -1.00000000000000 -0.00000000000000
  outer loop
   vertex -1660.32717348410279 727.00000000000000 55.14213793630653
   vertex -1660.74999999999955 727.00000000000000 54.83493649053897
   vertex -1653.99999999999977 727.00000000000000 20.19186810031643
  endloop
 endfacet
 facet normal 0.00000000000000 -1.00000000000000 0.00000000000000
  outer loop
   vertex -1653.99999999999977 727.00000000000000 20.19186810031643
   vertex -1659.55463099816552 727.00000000000000 56.48022077295560
   vertex -1659.71613635589347 727.00000000000000 55.98315839231047
  endloop
 endfacet
 facet normal 0.00000000000000 -1.00000000000000 0.00000000000000
  outer loop
   vertex -1653.99999999999977 727.00000000000000 67.00000000000000
   vertex -1659.50000000000000 727.00000000000000 57.00000000000001
   vertex -1659.55463099816552 727.00000000000000 56.48022077295560
  endloop
 endfacet
 facet normal 0.00000000000000 -1.00000000000000 0.00000000000000
  outer loop
   vertex -1660.75000000000000 727.00000000000000 59.16506350946116
   vertex -1660.32717348410279 727.00000000000000 58.85786206369349
   vertex -1653.99999999999977 727.00000000000000 67.00000000000000
  endloop
 endfacet
 facet normal 0.00000000000000 -1.00000000000000 0.00000000000000
  outer loop
   vertex -1669.99999999999977 727.00000000000000 67.00000000000001
   vertex -1664.44536900183448 727.00000000000000 57.51977922704442
   vertex -1664.28386364410608 727.00000000000000 58.01684160768956
  endloop
 endfacet
 facet normal 0.00000000000000 -1.00000000000000 0.00000000000000
  outer loop
   vertex -1661.73867884183073 727.00000000000000 54.51369526157934
   vertex -1659.97745751406251 727.00000000000000 31.66133123104758
   vertex -1659.71613635589347 727.00000000000000 31.20870970800596
  endloop
 endfacet
 facet normal -0.00000000000000 -1.00000000000000 -0.00000000000000
  outer loop
   vertex -1663.67282651589699 727.00000000000000 55.14213793630653
   vertex -1664.02254248593727 727.00000000000000 55.53053686926884
   vertex -1663.67282651589699 727.00000000000000 32.04973016400989
  endloop
 endfacet
 facet normal 0.00000000000000 -1.00000000000000 0.00000000000000
  outer loop
   vertex -1664.44536900183448 727.00000000000000 30.71164732736083
   vertex -1664.28386364410608 727.00000000000000 31.20870970800596
   vertex -1664.02254248593727 727.00000000000000 55.53053686926884
  endloop
 endfacet
 facet normal 0.00000000000000 -1.00000000000000 0.00000000000000
  outer loop
   vertex -1669.99999999999977 727.00000000000000 20.19186810031643
   vertex -1664.02254248593727 727.00000000000000 28.72240496958526
   vertex -1664.28386364410608 727.00000000000000 29.17502649262687
  endloop
 endfacet
 facet normal 0.00000000000000 -1.00000000000000 0.00000000000000
  outer loop
   vertex -1669.99999999999977 727.00000000000000 20.19186810031643
   vertex -1662.77254248593727 727.00000000000000 27.81422680957851
   vertex -1663.24999999999955 727.00000000000000 28.02680459085526
  endloop
 endfacet
 facet normal 0.00000000000000 -1.00000000000000 -0.00000000000000
  outer loop
   vertex -1659.71613635589347 727.00000000000000 29.17502649262687
   vertex -1659.97745751406251 727.00000000000000 28.72240496958526
   vertex -1653.99999999999977 727.00000000000000 20.19186810031643
  endloop
 endfacet
 facet normal 0.00000000000000 -1.00000000000000 0.00000000000000
  outer loop
   vertex -1659.55463099816552 727.00000000000000 56.48022077295560
   vertex -1653.99999999999977 727.00000000000000 20.19186810031643
   vertex -1653.99999999999977 727.00000000000000 67.00000000000000
  endloop
 endfacet
 facet normal 0.00000000000000 -1.00000000000000 0.00000000000000
  outer loop
   vertex -1653.99999999999977 727.00000000000000 67.00000000000000
   vertex -1659.97745751406251 727.00000000000000 58.46946313073118
   vertex -1659.71613635589347 727.00000000000000 58.01684160768956
  endloop
 endfacet
 facet normal 0.00000000000000 -1.00000000000000 0.00000000000000
  outer loop
   vertex -1669.99999999999977 727.00000000000000 67.00000000000001
   vertex -1664.02254248593727 727.00000000000000 58.46946313073117
   vertex -1663.67282651589699 727.00000000000000 58.85786206369349
  endloop
 endfacet
 facet normal 0.00000000000000 -1.00000000000000 0.00000000000000
  outer loop
   vertex -1669.99999999999977 727.00000000000000 67.00000000000001
   vertex -1664.50000000000000 727.00000000000000 57.00000000000001
   vertex -1664.44536900183448 727.00000000000000 57.51977922704442
  endloop
 endfacet
 facet normal 0.00000000000000 -1.00000000000000 0.00000000000000
  outer loop
   vertex -1669.99999999999977 727.00000000000000 67.00000000000001
   vertex -1669.99999999999977 727.00000000000000 20.19186810031643
   vertex -1664.44536900183448 727.00000000000000 56.48022077295559
  endloop
 endfacet
 facet normal 0.00000000000000 -1.00000000000000 0.00000000000000
  outer loop
   vertex -1669.99999999999977 727.00000000000000 20.19186810031643
   vertex -1664.02254248593727 727.00000000000000 55.53053686926884
   vertex -1664.28386364410608 727.00000000000000 55.98315839231046
  endloop
 endfacet
 facet normal 0.00000000000000 -1.00000000000000 0.00000000000000
  outer loop
   vertex -1659.71613635589347 727.00000000000000 31.20870970800596
   vertex -1659.55463099816552 727.00000000000000 30.71164732736083
   vertex -1661.73867884183073 727.00000000000000 54.51369526157934
  endloop
 endfacet
 facet normal 0.00000000000000 -1.00000000000000 0.00000000000000
  outer loop
   vertex -1664.02254248593727 727.00000000000000 55.53053686926884
   vertex -1664.02254248593727 727.00000000000000 31.66133123104758
   vertex -1663.67282651589699 727.00000000000000 32.04973016400989
  endloop
 endfacet
 facet normal 0.00000000000000 -1.00000000000000 0.00000000000000
  outer loop
   vertex -1669.99999999999977 727.00000000000000 20.19186810031643
   vertex -1664.50000000000000 727.00000000000000 30.19186810031642
   vertex -1664.44536900183448 727.00000000000000 30.71164732736083
  endloop
 endfacet
 facet normal -0.00000000000000 -1.00000000000000 0.00000000000000
  outer loop
   vertex -1664.28386364410608 727.00000000000000 29.17502649262687
   vertex -1664.44536900183448 727.00000000000000 29.67208887327200
   vertex -1669.99999999999977 727.00000000000000 20.19186810031643
  endloop
 endfacet
 facet normal 0.00000000000000 -1.00000000000000 0.00000000000000
  outer loop
   vertex -1669.99999999999977 727.00000000000000 20.19186810031643
   vertex -1662.26132115816904 727.00000000000000 27.70556336189575
   vertex -1662.77254248593727 727.00000000000000 27.81422680957851
  endloop
 endfacet
 facet normal 0.00000000000000 -1.00000000000000 0.00000000000000
  outer loop
   vertex -1669.99999999999977 727.00000000000000 20.19186810031643
   vertex -1653.99999999999977 727.00000000000000 20.19186810031643
   vertex -1661.73867884183073 727.00000000000000 27.70556336189575
  endloop
 endfacet
 facet normal 0.00000000000000 -1.00000000000000 -0.00000000000000
  outer loop
   vertex -1659.71613635589347 727.00000000000000 55.98315839231047
   vertex -1659.97745751406251 727.00000000000000 55.53053686926886
   vertex -1653.99999999999977 727.00000000000000 20.19186810031643
  endloop
 endfacet
 facet normal 0.00000000000000 -1.00000000000000 0.00000000000000
  outer loop
   vertex -1659.71613635589347 727.00000000000000 58.01684160768956
   vertex -1659.55463099816552 727.00000000000000 57.51977922704442
   vertex -1653.99999999999977 727.00000000000000 67.00000000000000
  endloop
 endfacet
 facet normal 0.00000000000000 -1.00000000000000 0.00000000000000
  outer loop
   vertex -1664.28386364410608 727.00000000000000 58.01684160768956
   vertex -1664.02254248593727 727.00000000000000 58.46946313073117
   vertex -1669.99999999999977 727.00000000000000 67.00000000000001
  endloop
 endfacet
 facet normal -0.00000000000000 -1.00000000000000 0.00000000000000
  outer loop
   vertex -1664.28386364410608 727.00000000000000 55.98315839231046
   vertex -1664.44536900183448 727.00000000000000 56.48022077295559
   vertex -1669.99999999999977 727.00000000000000 20.19186810031643
  endloop
 endfacet
 facet normal 0.00000000000000 -1.00000000000000 0.00000000000000
  outer loop
   vertex -1660.32717348410279 727.00000000000000 32.04973016400989
   vertex -1659.97745751406251 727.00000000000000 31.66133123104758
   vertex -1661.73867884183073 727.00000000000000 54.51369526157934
  endloop
 endfacet
 facet normal -0.00000000000000 -1.00000000000000 0.00000000000000
  outer loop
   vertex -1664.44536900183448 727.00000000000000 29.67208887327200
   vertex -1664.50000000000000 727.00000000000000 30.19186810031642
   vertex -1669.99999999999977 727.00000000000000 20.19186810031643
  endloop
 endfacet
 facet normal -0.00000000000000 -1.00000000000000 0.00000000000000
  outer loop
   vertex -1661.73867884183073 727.00000000000000 27.70556336189575
   vertex -1662.26132115816904 727.00000000000000 27.70556336189575
   vertex -1669.99999999999977 727.00000000000000 20.19186810031643
  endloop
 endfacet
 facet normal 0.00000000000000 -1.00000000000000 0.00000000000000
  outer loop
   vertex -1659.55463099816552 727.00000000000000 57.51977922704442
   vertex -1659.50000000000000 727.00000000000000 57.00000000000001
   vertex -1653.99999999999977 727.00000000000000 67.00000000000000
  endloop
 endfacet
 facet normal 0.00000000000000 -1.00000000000000 0.00000000000000
  outer loop
   vertex -1664.44536900183448 727.00000000000000 56.48022077295559
   vertex -1664.50000000000000 727.00000000000000 57.00000000000001
   vertex -1669.99999999999977 727.00000000000000 67.00000000000001
  endloop
 endfacet
 facet normal 0.00000000000000 -1.00000000000000 0.00000000000000
  outer loop
   vertex -1664.28386364410608 727.00000000000000 31.20870970800596
   vertex -1664.02254248593727 727.00000000000000 31.66133123104758
   vertex -1664.02254248593727 727.00000000000000 55.53053686926884
  endloop
 endfacet
 facet normal -0.00000000000000 -1.00000000000000 0.00000000000000
  outer loop
   vertex -1663.24999999999955 727.00000000000000 28.02680459085526
   vertex -1663.67282651589699 727.00000000000000 28.33400603662295
   vertex -1669.99999999999977 727.00000000000000 20.19186810031643
  endloop
 endfacet
 facet normal 0.00000000000000 -1.00000000000000 0.00000000000000
  outer loop
   vertex -1660.32717348410279 727.00000000000000 58.85786206369349
   vertex -1659.97745751406251 727.00000000000000 58.46946313073118
   vertex -1653.99999999999977 727.00000000000000 67.00000000000000
  endloop
 endfacet
 facet normal -0.00000000000000 -1.00000000000000 0.00000000000000
  outer loop
   vertex -1663.67282651589699 727.00000000000000 28.33400603662295
   vertex -1664.02254248593727 727.00000000000000 28.72240496958526
   vertex -1669.99999999999977 727.00000000000000 20.19186810031643
  endloop
 endfacet
 facet normal 0.00000000000000 -1.00000000000000 0.00000000000000
  outer loop
   vertex -1659.55463099816552 727.00000000000000 30.71164732736083
   vertex -1659.50000000000000 727.00000000000000 30.19186810031642
   vertex -1661.73867884183073 727.00000000000000 54.51369526157934
  endloop
 endfacet
 facet normal 0.00000000000000 -1.00000000000000 -0.00000000000000
  outer loop
   vertex -1661.22745751406251 727.00000000000000 27.81422680957851
   vertex -1661.73867884183073 727.00000000000000 27.70556336189575
   vertex -1653.99999999999977 727.00000000000000 20.19186810031643
  endloop
 endfacet
 facet normal 0.99452189536827 0.00000000000000 0.10452846326772
  outer loop
   vertex -1664.44536900183448 739.00000000000000 56.48022077295559
   vertex -1664.50000000000000 739.00000000000000 57.00000000000001
   vertex -1664.50000000000000 727.00000000000000 57.00000000000001
  endloop
 endfacet
 facet normal 0.95105651629494 0.00000000000000 0.30901699437560
  outer loop
   vertex -1664.28386364410608 739.00000000000000 55.98315839231046
   vertex -1664.44536900183448 739.00000000000000 56.48022077295559
   vertex -1664.44536900183448 727.00000000000000 56.48022077295559
  endloop
 endfacet
 facet normal 0.86602540378467 0.00000000000000 0.49999999999959
  outer loop
   vertex -1664.02254248593727 739.00000000000000 55.53053686926884
   vertex -1664.28386364410608 739.00000000000000 55.98315839231046
   vertex -1664.28386364410608 727.00000000000000 55.98315839231046
  endloop
 endfacet
 facet normal 0.74314482547735 0.00000000000000 0.66913060635891
  outer loop
   vertex -1663.67282651589699 739.00000000000000 55.14213793630653
   vertex -1664.02254248593727 739.00000000000000 55.53053686926884
   vertex -1664.02254248593727 727.00000000000000 55.53053686926884
  endloop
 endfacet
 facet normal 0.58778525229229 0.00000000000000 0.80901699437508
  outer loop
   vertex -1663.24999999999955 739.00000000000000 54.83493649053885
   vertex -1663.67282651589699 739.00000000000000 55.14213793630653
   vertex -1663.67282651589699 727.00000000000000 55.14213793630653
  endloop
 endfacet
 facet normal 0.40673664307599 0.00000000000000 0.91354545764252
  outer loop
   vertex -1662.77254248593727 739.00000000000000 54.62235870926210
   vertex -1663.24999999999955 739.00000000000000 54.83493649053885
   vertex -1663.24999999999955 727.00000000000000 54.83493649053885
  endloop
 endfacet
 facet normal 0.20791169081769 -0.00000000000000 0.97814760073382
  outer loop
   vertex -1662.26132115816904 739.00000000000000 54.51369526157934
   vertex -1662.77254248593727 739.00000000000000 54.62235870926210
   vertex -1662.77254248593727 727.00000000000000 54.62235870926210
  endloop
 endfacet
 facet normal 0.00000000000000 0.00000000000000 1.00000000000000
  outer loop
   vertex -1661.73867884183073 739.00000000000000 54.51369526157934
   vertex -1662.26132115816904 739.00000000000000 54.51369526157934
   vertex -1662.26132115816904 727.00000000000000 54.51369526157934
  endloop
 endfacet
 facet normal -0.20791169081769 0.00000000000000 0.97814760073382
  outer loop
   vertex -1661.22745751406251 739.00000000000000 54.62235870926210
   vertex -1661.73867884183073 739.00000000000000 54.51369526157934
   vertex -1661.73867884183073 727.00000000000000 54.51369526157934
  endloop
 endfacet
 facet normal -0.40673664307570 -0.00000000000000 0.91354545764265
  outer loop
   vertex -1660.74999999999955 739.00000000000000 54.83493649053897
   vertex -1661.22745751406251 739.00000000000000 54.62235870926210
   vertex -1661.22745751406251 727.00000000000000 54.62235870926210
  endloop
 endfacet
 facet normal -0.58778525229276 0.00000000000000 0.80901699437474
  outer loop
   vertex -1660.32717348410279 739.00000000000000 55.14213793630653
   vertex -1660.74999999999955 739.00000000000000 54.83493649053897
   vertex -1660.74999999999955 727.00000000000000 54.83493649053897
  endloop
 endfacet
 facet normal -0.74314482547736 0.00000000000000 0.66913060635890
  outer loop
   vertex -1659.97745751406251 739.00000000000000 55.53053686926886
   vertex -1660.32717348410279 739.00000000000000 55.14213793630653
   vertex -1660.32717348410279 727.00000000000000 55.14213793630653
  endloop
 endfacet
 facet normal -0.86602540378448 0.00000000000000 0.49999999999992
  outer loop
   vertex -1659.71613635589347 739.00000000000000 55.98315839231047
   vertex -1659.97745751406251 739.00000000000000 55.53053686926886
   vertex -1659.97745751406251 727.00000000000000 55.53053686926886
  endloop
 endfacet
 facet normal -0.95105651629520 -0.00000000000000 0.30901699437482
  outer loop
   vertex -1659.55463099816552 739.00000000000000 56.48022077295560
   vertex -1659.71613635589347 739.00000000000000 55.98315839231047
   vertex -1659.71613635589347 727.00000000000000 55.98315839231047
  endloop
 endfacet
 facet normal -0.99452189536827 -0.00000000000000 0.10452846326772
  outer loop
   vertex -1659.50000000000000 739.00000000000000 57.00000000000001
   vertex -1659.55463099816552 739.00000000000000 56.48022077295560
   vertex -1659.55463099816552 727.00000000000000 56.48022077295560
  endloop
 endfacet
 facet normal -0.99452189536827 -0.00000000000000 -0.10452846326772
  outer loop
   vertex -1659.55463099816552 739.00000000000000 57.51977922704442
   vertex -1659.50000000000000 739.00000000000000 57.00000000000001
   vertex -1659.50000000000000 727.00000000000000 57.00000000000001
  endloop
 endfacet
 facet normal -0.95105651629520 0.00000000000000 -0.30901699437481
  outer loop
   vertex -1659.71613635589347 739.00000000000000 58.01684160768956
   vertex -1659.55463099816552 739.00000000000000 57.51977922704442
   vertex -1659.55463099816552 727.00000000000000 57.51977922704442
  endloop
 endfacet
 facet normal -0.86602540378448 0.00000000000000 -0.49999999999992
  outer loop
   vertex -1659.97745751406251 739.00000000000000 58.46946313073118
   vertex -1659.71613635589347 739.00000000000000 58.01684160768956
   vertex -1659.71613635589347 727.00000000000000 58.01684160768956
  endloop
 endfacet
 facet normal -0.74314482547735 0.00000000000000 -0.66913060635891
  outer loop
   vertex -1660.32717348410279 739.00000000000000 58.85786206369349
   vertex -1659.97745751406251 739.00000000000000 58.46946313073118
   vertex -1659.97745751406251 727.00000000000000 58.46946313073118
  endloop
 endfacet
 facet normal -0.58778525229249 -0.00000000000000 -0.80901699437493
  outer loop
   vertex -1660.75000000000000 739.00000000000000 59.16506350946116
   vertex -1660.32717348410279 739.00000000000000 58.85786206369349
   vertex -1660.32717348410279 727.00000000000000 58.85786206369349
  endloop
 endfacet
 facet normal -0.40673664307584 0.00000000000000 -0.91354545764258
  outer loop
   vertex -1661.22745751406251 739.00000000000000 59.37764129073792
   vertex -1660.75000000000000 739.00000000000000 59.16506350946116
   vertex -1660.75000000000000 727.00000000000000 59.16506350946116
  endloop
 endfacet
 facet normal -0.20791169081770 0.00000000000000 -0.97814760073382
  outer loop
   vertex -1661.73867884183073 739.00000000000000 59.48630473842069
   vertex -1661.22745751406251 739.00000000000000 59.37764129073792
   vertex -1661.22745751406251 727.00000000000000 59.37764129073792
  endloop
 endfacet
 facet normal 0.00000000000000 0.00000000000000 -1.00000000000000
  outer loop
   vertex -1662.26132115816904 739.00000000000000 59.48630473842069
   vertex -1661.73867884183073 739.00000000000000 59.48630473842069
   vertex -1661.73867884183073 727.00000000000000 59.48630473842069
  endloop
 endfacet
 facet normal 0.20791169081770 0.00000000000000 -0.97814760073382
  outer loop
   vertex -1662.77254248593727 739.00000000000000 59.37764129073792
   vertex -1662.26132115816904 739.00000000000000 59.48630473842069
   vertex -1662.26132115816904 727.00000000000000 59.48630473842069
  endloop
 endfacet
 facet normal 0.40673664307600 0.00000000000000 -0.91354545764251
  outer loop
   vertex -1663.24999999999955 739.00000000000000 59.16506350946116
   vertex -1662.77254248593727 739.00000000000000 59.37764129073792
   vertex -1662.77254248593727 727.00000000000000 59.37764129073792
  endloop
 endfacet
 facet normal 0.58778525229228 0.00000000000000 -0.80901699437509
  outer loop
   vertex -1663.67282651589699 739.00000000000000 58.85786206369349
   vertex -1663.24999999999955 739.00000000000000 59.16506350946116
   vertex -1663.24999999999955 727.00000000000000 59.16506350946116
  endloop
 endfacet
 facet normal 0.74314482547735 0.00000000000000 -0.66913060635890
  outer loop
   vertex -1664.02254248593727 739.00000000000000 58.46946313073117
   vertex -1663.67282651589699 739.00000000000000 58.85786206369349
   vertex -1663.67282651589699 727.00000000000000 58.85786206369349
  endloop
 endfacet
 facet normal 0.86602540378467 0.00000000000000 -0.49999999999959
  outer loop
   vertex -1664.28386364410608 739.00000000000000 58.01684160768956
   vertex -1664.02254248593727 739.00000000000000 58.46946313073117
   vertex -1664.02254248593727 727.00000000000000 58.46946313073117
  endloop
 endfacet
 facet normal 0.95105651629494 -0.00000000000000 -0.30901699437560
  outer loop
   vertex -1664.44536900183448 739.00000000000000 57.51977922704442
   vertex -1664.28386364410608 739.00000000000000 58.01684160768956
   vertex -1664.28386364410608 727.00000000000000 58.01684160768956
  endloop
 endfacet
 facet normal 0.99452189536827 0.00000000000000 -0.10452846326772
  outer loop
   vertex -1664.50000000000000 739.00000000000000 57.00000000000001
   vertex -1664.44536900183448 739.00000000000000 57.51977922704442
   vertex -1664.44536900183448 727.00000000000000 57.51977922704442
  endloop
 endfacet
 facet normal 0.99452189536827 0.00000000000000 -0.10452846326772
  outer loop
   vertex -1664.44536900183448 727.00000000000000 57.51977922704442
   vertex -1664.50000000000000 727.00000000000000 57.00000000000001
   vertex -1664.50000000000000 739.00000000000000 57.00000000000001
  endloop
 endfacet
 facet normal 0.95105651629494 -0.00000000000000 -0.30901699437560
  outer loop
   vertex -1664.28386364410608 727.00000000000000 58.01684160768956
   vertex -1664.44536900183448 727.00000000000000 57.51977922704442
   vertex -1664.44536900183448 739.00000000000000 57.51977922704442
  endloop
 endfacet
 facet normal 0.86602540378467 0.00000000000000 -0.49999999999959
  outer loop
   vertex -1664.02254248593727 727.00000000000000 58.46946313073117
   vertex -1664.28386364410608 727.00000000000000 58.01684160768956
   vertex -1664.28386364410608 739.00000000000000 58.01684160768956
  endloop
 endfacet
 facet normal 0.74314482547735 0.00000000000000 -0.66913060635890
  outer loop
   vertex -1663.67282651589699 727.00000000000000 58.85786206369349
   vertex -1664.02254248593727 727.00000000000000 58.46946313073117
   vertex -1664.02254248593727 739.00000000000000 58.46946313073117
  endloop
 endfacet
 facet normal 0.58778525229228 0.00000000000000 -0.80901699437509
  outer loop
   vertex -1663.24999999999955 727.00000000000000 59.16506350946116
   vertex -1663.67282651589699 727.00000000000000 58.85786206369349
   vertex -1663.67282651589699 739.00000000000000 58.85786206369349
  endloop
 endfacet
 facet normal 0.40673664307600 0.00000000000000 -0.91354545764251
  outer loop
   vertex -1662.77254248593727 727.00000000000000 59.37764129073792
   vertex -1663.24999999999955 727.00000000000000 59.16506350946116
   vertex -1663.24999999999955 739.00000000000000 59.16506350946116
  endloop
 endfacet
 facet normal 0.20791169081770 0.00000000000000 -0.97814760073382
  outer loop
   vertex -1662.26132115816904 727.00000000000000 59.48630473842069
   vertex -1662.77254248593727 727.00000000000000 59.37764129073792
   vertex -1662.77254248593727 739.00000000000000 59.37764129073792
  endloop
 endfacet
 facet normal 0.00000000000000 0.00000000000000 -1.00000000000000
  outer loop
   vertex -1661.73867884183073 727.00000000000000 59.48630473842069
   vertex -1662.26132115816904 727.00000000000000 59.48630473842069
   vertex -1662.26132115816904 739.00000000000000 59.48630473842069
  endloop
 endfacet
 facet normal -0.20791169081770 0.00000000000000 -0.97814760073382
  outer loop
   vertex -1661.22745751406251 727.00000000000000 59.37764129073792
   vertex -1661.73867884183073 727.00000000000000 59.48630473842069
   vertex -1661.73867884183073 739.00000000000000 59.48630473842069
  endloop
 endfacet
 facet normal -0.40673664307584 0.00000000000000 -0.91354545764258
  outer loop
   vertex -1660.75000000000000 727.00000000000000 59.16506350946116
   vertex -1661.22745751406251 727.00000000000000 59.37764129073792
   vertex -1661.22745751406251 739.00000000000000 59.37764129073792
  endloop
 endfacet
 facet normal -0.58778525229249 -0.00000000000000 -0.80901699437493
  outer loop
   vertex -1660.32717348410279 727.00000000000000 58.85786206369349
   vertex -1660.75000000000000 727.00000000000000 59.16506350946116
   vertex -1660.75000000000000 739.00000000000000 59.16506350946116
  endloop
 endfacet
 facet normal -0.74314482547735 0.00000000000000 -0.66913060635891
  outer loop
   vertex -1659.97745751406251 727.00000000000000 58.46946313073118
   vertex -1660.32717348410279 727.00000000000000 58.85786206369349
   vertex -1660.32717348410279 739.00000000000000 58.85786206369349
  endloop
 endfacet
 facet normal -0.86602540378448 0.00000000000000 -0.49999999999992
  outer loop
   vertex -1659.71613635589347 727.00000000000000 58.01684160768956
   vertex -1659.97745751406251 727.00000000000000 58.46946313073118
   vertex -1659.97745751406251 739.00000000000000 58.46946313073118
  endloop
 endfacet
 facet normal -0.95105651629520 0.00000000000000 -0.30901699437481
  outer loop
   vertex -1659.55463099816552 727.00000000000000 57.51977922704442
   vertex -1659.71613635589347 727.00000000000000 58.01684160768956
   vertex -1659.71613635589347 739.00000000000000 58.01684160768956
  endloop
 endfacet
 facet normal -0.99452189536827 -0.00000000000000 -0.10452846326772
  outer loop
   vertex -1659.50000000000000 727.00000000000000 57.00000000000001
   vertex -1659.55463099816552 727.00000000000000 57.51977922704442
   vertex -1659.55463099816552 739.00000000000000 57.51977922704442
  endloop
 endfacet
 facet normal -0.99452189536827 -0.00000000000000 0.10452846326772
  outer loop
   vertex -1659.55463099816552 727.00000000000000 56.48022077295560
   vertex -1659.50000000000000 727.00000000000000 57.00000000000001
   vertex -1659.50000000000000 739.00000000000000 57.00000000000001
  endloop
 endfacet
 facet normal -0.95105651629520 -0.00000000000000 0.30901699437482
  outer loop
   vertex -1659.71613635589347 727.00000000000000 55.98315839231047
   vertex -1659.55463099816552 727.00000000000000 56.48022077295560
   vertex -1659.55463099816552 739.00000000000000 56.48022077295560
  endloop
 endfacet
 facet normal -0.86602540378448 0.00000000000000 0.49999999999992
  outer loop
   vertex -1659.97745751406251 727.00000000000000 55.53053686926886
   vertex -1659.71613635589347 727.00000000000000 55.98315839231047
   vertex -1659.71613635589347 739.00000000000000 55.98315839231047
  endloop
 endfacet
 facet normal -0.74314482547736 0.00000000000000 0.66913060635890
  outer loop
   vertex -1660.32717348410279 727.00000000000000 55.14213793630653
   vertex -1659.97745751406251 727.00000000000000 55.53053686926886
   vertex -1659.97745751406251 739.00000000000000 55.53053686926886
  endloop
 endfacet
 facet normal -0.58778525229276 0.00000000000000 0.80901699437474
  outer loop
   vertex -1660.74999999999955 727.00000000000000 54.83493649053897
   vertex -1660.32717348410279 727.00000000000000 55.14213793630653
   vertex -1660.32717348410279 739.00000000000000 55.14213793630653
  endloop
 endfacet
 facet normal -0.40673664307570 -0.00000000000000 0.91354545764265
  outer loop
   vertex -1661.22745751406251 727.00000000000000 54.62235870926210
   vertex -1660.74999999999955 727.00000000000000 54.83493649053897
   vertex -1660.74999999999955 739.00000000000000 54.83493649053897
  endloop
 endfacet
 facet normal -0.20791169081769 0.00000000000000 0.97814760073382
  outer loop
   vertex -1661.73867884183073 727.00000000000000 54.51369526157934
   vertex -1661.22745751406251 727.00000000000000 54.62235870926210
   vertex -1661.22745751406251 739.00000000000000 54.62235870926210
  endloop
 endfacet
 facet normal 0.00000000000000 0.00000000000000 1.00000000000000
  outer loop
   vertex -1662.26132115816904 727.00000000000000 54.51369526157934
   vertex -1661.73867884183073 727.00000000000000 54.51369526157934
   vertex -1661.73867884183073 739.00000000000000 54.51369526157934
  endloop
 endfacet
 facet normal 0.20791169081769 -0.00000000000000 0.97814760073382
  outer loop
   vertex -1662.77254248593727 727.00000000000000 54.62235870926210
   vertex -1662.26132115816904 727.00000000000000 54.51369526157934
   vertex -1662.26132115816904 739.00000000000000 54.51369526157934
  endloop
 endfacet
 facet normal 0.40673664307599 0.00000000000000 0.91354545764252
  outer loop
   vertex -1663.24999999999955 727.00000000000000 54.83493649053885
   vertex -1662.77254248593727 727.00000000000000 54.62235870926210
   vertex -1662.77254248593727 739.00000000000000 54.62235870926210
  endloop
 endfacet
 facet normal 0.58778525229229 0.00000000000000 0.80901699437508
  outer loop
   vertex -1663.67282651589699 727.00000000000000 55.14213793630653
   vertex -1663.24999999999955 727.00000000000000 54.83493649053885
   vertex -1663.24999999999955 739.00000000000000 54.83493649053885
  endloop
 endfacet
 facet normal 0.74314482547735 0.00000000000000 0.66913060635891
  outer loop
   vertex -1664.02254248593727 727.00000000000000 55.53053686926884
   vertex -1663.67282651589699 727.00000000000000 55.14213793630653
   vertex -1663.67282651589699 739.00000000000000 55.14213793630653
  endloop
 endfacet
 facet normal 0.86602540378467 0.00000000000000 0.49999999999959
  outer loop
   vertex -1664.28386364410608 727.00000000000000 55.98315839231046
   vertex -1664.02254248593727 727.00000000000000 55.53053686926884
   vertex -1664.02254248593727 739.00000000000000 55.53053686926884
  endloop
 endfacet
 facet normal 0.95105651629494 0.00000000000000 0.30901699437560
  outer loop
   vertex -1664.44536900183448 727.00000000000000 56.48022077295559
   vertex -1664.28386364410608 727.00000000000000 55.98315839231046
   vertex -1664.28386364410608 739.00000000000000 55.98315839231046
  endloop
 endfacet
 facet normal 0.99452189536827 0.00000000000000 0.10452846326772
  outer loop
   vertex -1664.50000000000000 727.00000000000000 57.00000000000001
   vertex -1664.44536900183448 727.00000000000000 56.48022077295559
   vertex -1664.44536900183448 739.00000000000000 56.48022077295559
  endloop
 endfacet
 facet normal -1.00000000000000 0.00000000000000 0.00000000000000
  outer loop
   vertex -1669.99999999999977 727.00000000000000 20.19186810031643
   vertex -1669.99999999999977 727.00000000000000 67.00000000000001
   vertex -1669.99999999999977 738.00000000000011 67.00000000000001
  endloop
 endfacet
 facet normal -1.00000000000000 0.00000000000000 -0.00000000000000
  outer loop
   vertex -1669.99999999999977 738.00000000000011 67.00000000000001
   vertex -1669.99999999999977 738.00000000000011 20.19186810031643
   vertex -1669.99999999999977 727.00000000000000 20.19186810031643
  endloop
 endfacet
 facet normal -0.15643446503992 0.98768834059519 0.00000000000000
  outer loop
   vertex -1669.00000000000000 739.00000000000000 67.00000000000001
   vertex -1669.00000000000000 739.00000000000000 20.19186810031643
   vertex -1669.30901699437504 738.95105651629524 20.19186810031643
  endloop
 endfacet
 facet normal -0.45399049974001 0.89100652418813 0.00000000000000
  outer loop
   vertex -1669.30901699437504 738.95105651629524 67.00000000000001
   vertex -1669.30901699437504 738.95105651629524 20.19186810031643
   vertex -1669.58778525229263 738.80901699437482 20.19186810031643
  endloop
 endfacet
 facet normal -0.70710678118673 0.70710678118637 0.00000000000000
  outer loop
   vertex -1669.58778525229263 738.80901699437482 67.00000000000001
   vertex -1669.58778525229263 738.80901699437482 20.19186810031643
   vertex -1669.80901699437482 738.58778525229252 20.19186810031643
  endloop
 endfacet
 facet normal -0.89100652418835 0.45399049973958 0.00000000000000
  outer loop
   vertex -1669.80901699437482 738.58778525229252 67.00000000000001
   vertex -1669.80901699437482 738.58778525229252 20.19186810031643
   vertex -1669.95105651629501 738.30901699437504 20.19186810031643
  endloop
 endfacet
 facet normal -0.98768834059518 0.15643446503997 0.00000000000000
  outer loop
   vertex -1669.95105651629501 738.30901699437504 67.00000000000001
   vertex -1669.95105651629501 738.30901699437504 20.19186810031643
   vertex -1669.99999999999977 738.00000000000011 20.19186810031643
  endloop
 endfacet
 facet normal -0.98768834059518 0.15643446503997 0.00000000000000
  outer loop
   vertex -1669.99999999999977 738.00000000000011 20.19186810031643
   vertex -1669.99999999999977 738.00000000000011 67.00000000000001
   vertex -1669.95105651629501 738.30901699437504 67.00000000000001
  endloop
 endfacet
 facet normal -0.89100652418835 0.45399049973958 0.00000000000000
  outer loop
   vertex -1669.95105651629501 738.30901699437504 20.19186810031643
   vertex -1669.95105651629501 738.30901699437504 67.00000000000001
   vertex -1669.80901699437482 738.58778525229252 67.00000000000001
  endloop
 endfacet
 facet normal -0.70710678118673 0.70710678118637 0.00000000000000
  outer loop
   vertex -1669.80901699437482 738.58778525229252 20.19186810031643
   vertex -1669.80901699437482 738.58778525229252 67.00000000000001
   vertex -1669.58778525229263 738.80901699437482 67.00000000000001
  endloop
 endfacet
 facet normal -0.45399049974001 0.89100652418813 0.00000000000000
  outer loop
   vertex -1669.58778525229263 738.80901699437482 20.19186810031643
   vertex -1669.58778525229263 738.80901699437482 67.00000000000001
   vertex -1669.30901699437504 738.95105651629524 67.00000000000001
  endloop
 endfacet
 facet normal -0.15643446503992 0.98768834059519 0.00000000000000
  outer loop
   vertex -1669.30901699437504 738.95105651629524 20.19186810031643
   vertex -1669.30901699437504 738.95105651629524 67.00000000000001
   vertex -1669.00000000000000 739.00000000000000 67.00000000000001
  endloop
 endfacet
 facet normal 0.00000000000000 0.00000000000000 1.00000000000000
  outer loop
   vertex -1669.58778525229263 738.80901699437482 67.00000000000001
   vertex -1669.80901699437482 738.58778525229252 67.00000000000001
   vertex -1669.95105651629501 738.30901699437504 67.00000000000001
  endloop
 endfacet
 facet normal 0.00000000000000 0.00000000000000 1.00000000000000
  outer loop
   vertex -1669.99999999999977 738.00000000000011 67.00000000000001
   vertex -1669.00000000000000 739.00000000000000 67.00000000000001
   vertex -1669.30901699437504 738.95105651629524 67.00000000000001
  endloop
 endfacet
 facet normal 0.00000000000000 0.00000000000000 1.00000000000000
  outer loop
   vertex -1669.30901699437504 738.95105651629524 67.00000000000001
   vertex -1669.58778525229263 738.80901699437482 67.00000000000001
   vertex -1669.99999999999977 738.00000000000011 67.00000000000001
  endloop
 endfacet
 facet normal 0.00000000000000 0.00000000000000 1.00000000000000
  outer loop
   vertex -1669.99999999999977 738.00000000000011 67.00000000000001
   vertex -1653.99999999999977 738.00000000000011 67.00000000000001
   vertex -1654.99999999999977 739.00000000000000 67.00000000000001
  endloop
 endfacet
 facet normal 0.00000000000000 0.00000000000000 1.00000000000000
  outer loop
   vertex -1653.99999999999977 738.00000000000011 67.00000000000001
   vertex -1654.41221474770714 738.80901699437482 67.00000000000001
   vertex -1654.69098300562473 738.95105651629524 67.00000000000001
  endloop
 endfacet
 facet normal 0.00000000000000 0.00000000000000 1.00000000000000
  outer loop
   vertex -1654.41221474770714 738.80901699437482 67.00000000000001
   vertex -1653.99999999999977 738.00000000000011 67.00000000000001
   vertex -1654.04894348370476 738.30901699437504 67.00000000000001
  endloop
 endfacet
 facet normal 0.00000000000000 0.00000000000000 1.00000000000000
  outer loop
   vertex -1654.99999999999977 739.00000000000000 67.00000000000001
   vertex -1669.00000000000000 739.00000000000000 67.00000000000001
   vertex -1669.99999999999977 738.00000000000011 67.00000000000001
  endloop
 endfacet
 facet normal 0.00000000000000 0.00000000000000 1.00000000000000
  outer loop
   vertex -1654.04894348370476 738.30901699437504 67.00000000000001
   vertex -1654.19098300562473 738.58778525229252 67.00000000000001
   vertex -1654.41221474770714 738.80901699437482 67.00000000000001
  endloop
 endfacet
 facet normal 0.00000000000000 -0.00000000000000 1.00000000000000
  outer loop
   vertex -1653.99999999999977 727.00000000000000 67.00000000000001
   vertex -1653.99999999999977 738.00000000000011 67.00000000000001
   vertex -1669.99999999999977 738.00000000000011 67.00000000000001
  endloop
 endfacet
 facet normal 0.00000000000000 0.00000000000000 1.00000000000000
  outer loop
   vertex -1654.69098300562473 738.95105651629524 67.00000000000001
   vertex -1654.99999999999977 739.00000000000000 67.00000000000001
   vertex -1653.99999999999977 738.00000000000011 67.00000000000001
  endloop
 endfacet
 facet normal -0.00000000000000 0.00000000000000 1.00000000000000
  outer loop
   vertex -1669.95105651629501 738.30901699437504 67.00000000000001
   vertex -1669.99999999999977 738.00000000000011 67.00000000000001
   vertex -1669.58778525229263 738.80901699437482 67.00000000000001
  endloop
 endfacet
 facet normal 0.00000000000000 0.00000000000000 1.00000000000000
  outer loop
   vertex -1669.99999999999977 738.00000000000011 67.00000000000001
   vertex -1669.99999999999977 727.00000000000000 67.00000000000001
   vertex -1653.99999999999977 727.00000000000000 67.00000000000001
  endloop
 endfacet
 facet normal 0.00000000000000 0.00000000000000 -1.00000000000000
  outer loop
   vertex -1654.41221474770714 738.80901699437482 20.19186810031643
   vertex -1654.19098300562473 738.58778525229252 20.19186810031643
   vertex -1654.04894348370476 738.30901699437504 20.19186810031643
  endloop
 endfacet
 facet normal 0.00000000000000 0.00000000000000 -1.00000000000000
  outer loop
   vertex -1653.99999999999977 738.00000000000011 20.19186810031643
   vertex -1654.99999999999977 739.00000000000000 20.19186810031643
   vertex -1654.69098300562473 738.95105651629524 20.19186810031643
  endloop
 endfacet
 facet normal 0.00000000000000 0.00000000000000 -1.00000000000000
  outer loop
   vertex -1654.69098300562473 738.95105651629524 20.19186810031643
   vertex -1654.41221474770714 738.80901699437482 20.19186810031643
   vertex -1653.99999999999977 738.00000000000011 20.19186810031643
  endloop
 endfacet
 facet normal 0.00000000000000 0.00000000000000 -1.00000000000000
  outer loop
   vertex -1653.99999999999977 738.00000000000011 20.19186810031643
   vertex -1669.99999999999977 738.00000000000011 20.19186810031643
   vertex -1669.00000000000000 739.00000000000000 20.19186810031643
  endloop
 endfacet
 facet normal 0.00000000000000 0.00000000000000 -1.00000000000000
  outer loop
   vertex -1669.99999999999977 738.00000000000011 20.19186810031643
   vertex -1669.58778525229263 738.80901699437482 20.19186810031643
   vertex -1669.30901699437504 738.95105651629524 20.19186810031643
  endloop
 endfacet
 facet normal 0.00000000000000 0.00000000000000 -1.00000000000000
  outer loop
   vertex -1669.58778525229263 738.80901699437482 20.19186810031643
   vertex -1669.99999999999977 738.00000000000011 20.19186810031643
   vertex -1669.95105651629501 738.30901699437504 20.19186810031643
  endloop
 endfacet
 facet normal 0.00000000000000 0.00000000000000 -1.00000000000000
  outer loop
   vertex -1669.00000000000000 739.00000000000000 20.19186810031643
   vertex -1654.99999999999977 739.00000000000000 20.19186810031643
   vertex -1653.99999999999977 738.00000000000011 20.19186810031643
  endloop
 endfacet
 facet normal 0.00000000000000 0.00000000000000 -1.00000000000000
  outer loop
   vertex -1669.95105651629501 738.30901699437504 20.19186810031643
   vertex -1669.80901699437482 738.58778525229252 20.19186810031643
   vertex -1669.58778525229263 738.80901699437482 20.19186810031643
  endloop
 endfacet
 facet normal 0.00000000000000 -0.00000000000000 -1.00000000000000
  outer loop
   vertex -1669.30901699437504 738.95105651629524 20.19186810031643
   vertex -1669.00000000000000 739.00000000000000 20.19186810031643
   vertex -1669.99999999999977 738.00000000000011 20.19186810031643
  endloop
 endfacet
 facet normal 0.00000000000000 0.00000000000000 -1.00000000000000
  outer loop
   vertex -1669.99999999999977 727.00000000000000 20.19186810031643
   vertex -1669.99999999999977 738.00000000000011 20.19186810031643
   vertex -1653.99999999999977 738.00000000000011 20.19186810031643
  endloop
 endfacet
 facet normal 0.00000000000000 -0.00000000000000 -1.00000000000000
  outer loop
   vertex -1653.99999999999977 738.00000000000011 20.19186810031643
   vertex -1653.99999999999977 727.00000000000000 20.19186810031643
   vertex -1669.99999999999977 727.00000000000000 20.19186810031643
  endloop
 endfacet
 facet normal -0.00000000000000 -0.00000000000000 -1.00000000000000
  outer loop
   vertex -1654.04894348370476 738.30901699437504 20.19186810031643
   vertex -1653.99999999999977 738.00000000000011 20.19186810031643
   vertex -1654.41221474770714 738.80901699437482 20.19186810031643
  endloop
 endfacet
 facet normal 0.00000000000000 1.00000000000000 0.00000000000000
  outer loop
   vertex -1654.99999999999977 739.00000000000000 20.19186810031643
   vertex -1661.73867884183073 739.00000000000000 27.70556336189575
   vertex -1661.22745751406251 739.00000000000000 27.81422680957851
  endloop
 endfacet
 facet normal 0.00000000000000 1.00000000000000 0.00000000000000
  outer loop
   vertex -1654.99999999999977 739.00000000000000 20.19186810031643
   vertex -1669.00000000000000 739.00000000000000 20.19186810031643
   vertex -1662.26132115816904 739.00000000000000 27.70556336189575
  endloop
 endfacet
 facet normal 0.00000000000000 1.00000000000000 0.00000000000000
  outer loop
   vertex -1669.00000000000000 739.00000000000000 20.19186810031643
   vertex -1663.67282651589699 739.00000000000000 28.33400603662295
   vertex -1663.24999999999955 739.00000000000000 28.02680459085526
  endloop
 endfacet
 facet normal 0.00000000000000 1.00000000000000 0.00000000000000
  outer loop
   vertex -1661.73867884183073 739.00000000000000 32.67817283873708
   vertex -1662.26132115816904 739.00000000000000 32.67817283873708
   vertex -1662.26132115816904 739.00000000000000 54.51369526157934
  endloop
 endfacet
 facet normal -0.00000000000000 1.00000000000000 0.00000000000000
  outer loop
   vertex -1662.26132115816904 739.00000000000000 27.70556336189575
   vertex -1661.73867884183073 739.00000000000000 27.70556336189575
   vertex -1654.99999999999977 739.00000000000000 20.19186810031643
  endloop
 endfacet
 facet normal 0.00000000000000 1.00000000000000 0.00000000000000
  outer loop
   vertex -1663.24999999999955 739.00000000000000 28.02680459085526
   vertex -1662.77254248593727 739.00000000000000 27.81422680957851
   vertex -1669.00000000000000 739.00000000000000 20.19186810031643
  endloop
 endfacet
 facet normal 0.00000000000000 1.00000000000000 0.00000000000000
  outer loop
   vertex -1661.73867884183073 739.00000000000000 32.67817283873708
   vertex -1661.73867884183073 739.00000000000000 54.51369526157934
   vertex -1661.22745751406251 739.00000000000000 54.62235870926210
  endloop
 endfacet
 facet normal -0.00000000000000 1.00000000000000 0.00000000000000
  outer loop
   vertex -1662.26132115816904 739.00000000000000 54.51369526157934
   vertex -1661.73867884183073 739.00000000000000 54.51369526157934
   vertex -1661.73867884183073 739.00000000000000 32.67817283873708
  endloop
 endfacet
 facet normal 0.00000000000000 1.00000000000000 0.00000000000000
  outer loop
   vertex -1662.77254248593727 739.00000000000000 32.56950939105432
   vertex -1663.67282651589699 739.00000000000000 55.14213793630653
   vertex -1663.24999999999955 739.00000000000000 54.83493649053885
  endloop
 endfacet
 facet normal 0.00000000000000 1.00000000000000 -0.00000000000000
  outer loop
   vertex -1661.22745751406251 739.00000000000000 32.56950939105432
   vertex -1661.73867884183073 739.00000000000000 32.67817283873708
   vertex -1659.50000000000000 739.00000000000000 57.00000000000001
  endloop
 endfacet
 facet normal 0.00000000000000 1.00000000000000 0.00000000000000
  outer loop
   vertex -1662.77254248593727 739.00000000000000 27.81422680957851
   vertex -1662.26132115816904 739.00000000000000 27.70556336189575
   vertex -1669.00000000000000 739.00000000000000 20.19186810031643
  endloop
 endfacet
 facet normal 0.00000000000000 1.00000000000000 -0.00000000000000
  outer loop
   vertex -1662.26132115816904 739.00000000000000 32.67817283873708
   vertex -1662.77254248593727 739.00000000000000 32.56950939105432
   vertex -1662.26132115816904 739.00000000000000 54.51369526157934
  endloop
 endfacet
 facet normal 0.00000000000000 1.00000000000000 0.00000000000000
  outer loop
   vertex -1663.24999999999955 739.00000000000000 54.83493649053885
   vertex -1662.77254248593727 739.00000000000000 54.62235870926210
   vertex -1662.77254248593727 739.00000000000000 32.56950939105432
  endloop
 endfacet
 facet normal 0.00000000000000 1.00000000000000 0.00000000000000
  outer loop
   vertex -1654.99999999999977 739.00000000000000 67.00000000000001
   vertex -1659.55463099816552 739.00000000000000 57.51977922704442
   vertex -1659.71613635589347 739.00000000000000 58.01684160768956
  endloop
 endfacet
 facet normal -0.00000000000000 1.00000000000000 0.00000000000000
  outer loop
   vertex -1659.50000000000000 739.00000000000000 57.00000000000001
   vertex -1654.99999999999977 739.00000000000000 67.00000000000001
   vertex -1661.22745751406251 739.00000000000000 32.56950939105432
  endloop
 endfacet
 facet normal 0.00000000000000 1.00000000000000 0.00000000000000
  outer loop
   vertex -1654.99999999999977 739.00000000000000 20.19186810031643
   vertex -1659.97745751406251 739.00000000000000 28.72240496958526
   vertex -1659.71613635589347 739.00000000000000 29.17502649262687
  endloop
 endfacet
 facet normal 0.00000000000000 1.00000000000000 0.00000000000000
  outer loop
   vertex -1654.99999999999977 739.00000000000000 20.19186810031643
   vertex -1660.74999999999955 739.00000000000000 28.02680459085538
   vertex -1660.32717348410279 739.00000000000000 28.33400603662295
  endloop
 endfacet
 facet normal 0.00000000000000 1.00000000000000 0.00000000000000
  outer loop
   vertex -1669.00000000000000 739.00000000000000 20.19186810031643
   vertex -1664.02254248593727 739.00000000000000 28.72240496958526
   vertex -1663.67282651589699 739.00000000000000 28.33400603662295
  endloop
 endfacet
 facet normal 0.00000000000000 1.00000000000000 0.00000000000000
  outer loop
   vertex -1663.67282651589699 739.00000000000000 55.14213793630653
   vertex -1662.77254248593727 739.00000000000000 32.56950939105432
   vertex -1663.24999999999955 739.00000000000000 32.35693160977757
  endloop
 endfacet
 facet normal 0.00000000000000 1.00000000000000 0.00000000000000
  outer loop
   vertex -1662.77254248593727 739.00000000000000 54.62235870926210
   vertex -1662.26132115816904 739.00000000000000 54.51369526157934
   vertex -1662.77254248593727 739.00000000000000 32.56950939105432
  endloop
 endfacet
 facet normal 0.00000000000000 1.00000000000000 -0.00000000000000
  outer loop
   vertex -1659.50000000000000 739.00000000000000 57.00000000000001
   vertex -1659.55463099816552 739.00000000000000 57.51977922704442
   vertex -1654.99999999999977 739.00000000000000 67.00000000000001
  endloop
 endfacet
 facet normal 0.00000000000000 1.00000000000000 0.00000000000000
  outer loop
   vertex -1654.99999999999977 739.00000000000000 67.00000000000001
   vertex -1660.32717348410279 739.00000000000000 32.04973016400989
   vertex -1660.75000000000000 739.00000000000000 32.35693160977758
  endloop
 endfacet
 facet normal 0.00000000000000 1.00000000000000 0.00000000000000
  outer loop
   vertex -1654.99999999999977 739.00000000000000 67.00000000000001
   vertex -1659.55463099816552 739.00000000000000 30.71164732736083
   vertex -1659.71613635589347 739.00000000000000 31.20870970800596
  endloop
 endfacet
 facet normal 0.00000000000000 1.00000000000000 0.00000000000000
  outer loop
   vertex -1654.99999999999977 739.00000000000000 20.19186810031643
   vertex -1659.50000000000000 739.00000000000000 30.19186810031642
   vertex -1659.55463099816552 739.00000000000000 30.71164732736083
  endloop
 endfacet
 facet normal -0.00000000000000 1.00000000000000 0.00000000000000
  outer loop
   vertex -1659.71613635589347 739.00000000000000 29.17502649262687
   vertex -1659.55463099816552 739.00000000000000 29.67208887327200
   vertex -1654.99999999999977 739.00000000000000 20.19186810031643
  endloop
 endfacet
 facet normal -0.00000000000000 1.00000000000000 0.00000000000000
  outer loop
   vertex -1661.22745751406251 739.00000000000000 27.81422680957851
   vertex -1660.74999999999955 739.00000000000000 28.02680459085538
   vertex -1654.99999999999977 739.00000000000000 20.19186810031643
  endloop
 endfacet
 facet normal 0.00000000000000 1.00000000000000 0.00000000000000
  outer loop
   vertex -1664.02254248593727 739.00000000000000 55.53053686926884
   vertex -1664.28386364410608 739.00000000000000 31.20870970800596
   vertex -1664.44536900183448 739.00000000000000 30.71164732736083
  endloop
 endfacet
 facet normal -0.00000000000000 1.00000000000000 0.00000000000000
  outer loop
   vertex -1661.22745751406251 739.00000000000000 54.62235870926210
   vertex -1660.74999999999955 739.00000000000000 54.83493649053897
   vertex -1661.73867884183073 739.00000000000000 32.67817283873708
  endloop
 endfacet
 facet normal 0.00000000000000 1.00000000000000 0.00000000000000
  outer loop
   vertex -1669.00000000000000 739.00000000000000 67.00000000000001
   vertex -1662.77254248593727 739.00000000000000 59.37764129073792
   vertex -1663.24999999999955 739.00000000000000 59.16506350946116
  endloop
 endfacet
 facet normal 0.00000000000000 1.00000000000000 -0.00000000000000
  outer loop
   vertex -1660.75000000000000 739.00000000000000 32.35693160977758
   vertex -1661.22745751406251 739.00000000000000 32.56950939105432
   vertex -1654.99999999999977 739.00000000000000 67.00000000000001
  endloop
 endfacet
 facet normal -0.00000000000000 1.00000000000000 0.00000000000000
  outer loop
   vertex -1659.55463099816552 739.00000000000000 30.71164732736083
   vertex -1654.99999999999977 739.00000000000000 67.00000000000001
   vertex -1654.99999999999977 739.00000000000000 20.19186810031643
  endloop
 endfacet
 facet normal -0.00000000000000 1.00000000000000 0.00000000000000
  outer loop
   vertex -1660.32717348410279 739.00000000000000 28.33400603662295
   vertex -1659.97745751406251 739.00000000000000 28.72240496958526
   vertex -1654.99999999999977 739.00000000000000 20.19186810031643
  endloop
 endfacet
 facet normal 0.00000000000000 1.00000000000000 0.00000000000000
  outer loop
   vertex -1669.00000000000000 739.00000000000000 20.19186810031643
   vertex -1664.44536900183448 739.00000000000000 29.67208887327200
   vertex -1664.28386364410608 739.00000000000000 29.17502649262687
  endloop
 endfacet
 facet normal 0.00000000000000 1.00000000000000 0.00000000000000
  outer loop
   vertex -1664.02254248593727 739.00000000000000 55.53053686926884
   vertex -1664.02254248593727 739.00000000000000 31.66133123104758
   vertex -1664.28386364410608 739.00000000000000 31.20870970800596
  endloop
 endfacet
 facet normal 0.00000000000000 1.00000000000000 -0.00000000000000
  outer loop
   vertex -1663.67282651589699 739.00000000000000 32.04973016400989
   vertex -1664.02254248593727 739.00000000000000 55.53053686926884
   vertex -1663.67282651589699 739.00000000000000 55.14213793630653
  endloop
 endfacet
 facet normal 0.00000000000000 1.00000000000000 0.00000000000000
  outer loop
   vertex -1669.00000000000000 739.00000000000000 67.00000000000001
   vertex -1662.26132115816904 739.00000000000000 59.48630473842069
   vertex -1662.77254248593727 739.00000000000000 59.37764129073792
  endloop
 endfacet
 facet normal -0.00000000000000 1.00000000000000 0.00000000000000
  outer loop
   vertex -1669.00000000000000 739.00000000000000 67.00000000000001
   vertex -1654.99999999999977 739.00000000000000 67.00000000000001
   vertex -1661.73867884183073 739.00000000000000 59.48630473842069
  endloop
 endfacet
 facet normal 0.00000000000000 1.00000000000000 0.00000000000000
  outer loop
   vertex -1654.99999999999977 739.00000000000000 67.00000000000001
   vertex -1659.97745751406251 739.00000000000000 31.66133123104758
   vertex -1660.32717348410279 739.00000000000000 32.04973016400989
  endloop
 endfacet
 facet normal -0.00000000000000 1.00000000000000 0.00000000000000
  outer loop
   vertex -1659.55463099816552 739.00000000000000 29.67208887327200
   vertex -1659.50000000000000 739.00000000000000 30.19186810031642
   vertex -1654.99999999999977 739.00000000000000 20.19186810031643
  endloop
 endfacet
 facet normal 0.00000000000000 1.00000000000000 0.00000000000000
  outer loop
   vertex -1669.00000000000000 739.00000000000000 20.19186810031643
   vertex -1664.50000000000000 739.00000000000000 30.19186810031642
   vertex -1664.44536900183448 739.00000000000000 29.67208887327200
  endloop
 endfacet
 facet normal 0.00000000000000 1.00000000000000 -0.00000000000000
  outer loop
   vertex -1664.44536900183448 739.00000000000000 30.71164732736083
   vertex -1669.00000000000000 739.00000000000000 20.19186810031643
   vertex -1664.02254248593727 739.00000000000000 55.53053686926884
  endloop
 endfacet
 facet normal 0.00000000000000 1.00000000000000 0.00000000000000
  outer loop
   vertex -1661.73867884183073 739.00000000000000 32.67817283873708
   vertex -1659.97745751406251 739.00000000000000 55.53053686926886
   vertex -1659.71613635589347 739.00000000000000 55.98315839231047
  endloop
 endfacet
 facet normal 0.00000000000000 1.00000000000000 0.00000000000000
  outer loop
   vertex -1661.73867884183073 739.00000000000000 32.67817283873708
   vertex -1660.74999999999955 739.00000000000000 54.83493649053897
   vertex -1660.32717348410279 739.00000000000000 55.14213793630653
  endloop
 endfacet
 facet normal 0.00000000000000 1.00000000000000 0.00000000000000
  outer loop
   vertex -1663.24999999999955 739.00000000000000 32.35693160977757
   vertex -1663.67282651589699 739.00000000000000 32.04973016400989
   vertex -1663.67282651589699 739.00000000000000 55.14213793630653
  endloop
 endfacet
 facet normal 0.00000000000000 1.00000000000000 0.00000000000000
  outer loop
   vertex -1669.00000000000000 739.00000000000000 67.00000000000001
   vertex -1664.02254248593727 739.00000000000000 58.46946313073117
   vertex -1664.28386364410608 739.00000000000000 58.01684160768956
  endloop
 endfacet
 facet normal 0.00000000000000 1.00000000000000 0.00000000000000
  outer loop
   vertex -1661.73867884183073 739.00000000000000 59.48630473842069
   vertex -1662.26132115816904 739.00000000000000 59.48630473842069
   vertex -1669.00000000000000 739.00000000000000 67.00000000000001
  endloop
 endfacet
 facet normal 0.00000000000000 1.00000000000000 -0.00000000000000
  outer loop
   vertex -1659.71613635589347 739.00000000000000 31.20870970800596
   vertex -1659.97745751406251 739.00000000000000 31.66133123104758
   vertex -1654.99999999999977 739.00000000000000 67.00000000000001
  endloop
 endfacet
 facet normal 0.00000000000000 1.00000000000000 0.00000000000000
  outer loop
   vertex -1664.44536900183448 739.00000000000000 30.71164732736083
   vertex -1664.50000000000000 739.00000000000000 30.19186810031642
   vertex -1669.00000000000000 739.00000000000000 20.19186810031643
  endloop
 endfacet
 facet normal -0.00000000000000 1.00000000000000 0.00000000000000
  outer loop
   vertex -1659.71613635589347 739.00000000000000 55.98315839231047
   vertex -1659.55463099816552 739.00000000000000 56.48022077295560
   vertex -1661.73867884183073 739.00000000000000 32.67817283873708
  endloop
 endfacet
 facet normal 0.00000000000000 1.00000000000000 0.00000000000000
  outer loop
   vertex -1663.67282651589699 739.00000000000000 32.04973016400989
   vertex -1664.02254248593727 739.00000000000000 31.66133123104758
   vertex -1664.02254248593727 739.00000000000000 55.53053686926884
  endloop
 endfacet
 facet normal 0.00000000000000 1.00000000000000 0.00000000000000
  outer loop
   vertex -1669.00000000000000 739.00000000000000 20.19186810031643
   vertex -1664.44536900183448 739.00000000000000 56.48022077295559
   vertex -1664.28386364410608 739.00000000000000 55.98315839231046
  endloop
 endfacet
 facet normal 0.00000000000000 1.00000000000000 0.00000000000000
  outer loop
   vertex -1669.00000000000000 739.00000000000000 67.00000000000001
   vertex -1664.50000000000000 739.00000000000000 57.00000000000001
   vertex -1664.44536900183448 739.00000000000000 56.48022077295559
  endloop
 endfacet
 facet normal 0.00000000000000 1.00000000000000 0.00000000000000
  outer loop
   vertex -1664.28386364410608 739.00000000000000 58.01684160768956
   vertex -1664.44536900183448 739.00000000000000 57.51977922704442
   vertex -1669.00000000000000 739.00000000000000 67.00000000000001
  endloop
 endfacet
 facet normal 0.00000000000000 1.00000000000000 0.00000000000000
  outer loop
   vertex -1663.24999999999955 739.00000000000000 59.16506350946116
   vertex -1663.67282651589699 739.00000000000000 58.85786206369349
   vertex -1669.00000000000000 739.00000000000000 67.00000000000001
  endloop
 endfacet
 facet normal 0.00000000000000 1.00000000000000 0.00000000000000
  outer loop
   vertex -1654.99999999999977 739.00000000000000 67.00000000000001
   vertex -1660.32717348410279 739.00000000000000 58.85786206369349
   vertex -1660.75000000000000 739.00000000000000 59.16506350946116
  endloop
 endfacet
 facet normal 0.00000000000000 1.00000000000000 0.00000000000000
  outer loop
   vertex -1664.28386364410608 739.00000000000000 29.17502649262687
   vertex -1664.02254248593727 739.00000000000000 28.72240496958526
   vertex -1669.00000000000000 739.00000000000000 20.19186810031643
  endloop
 endfacet
 facet normal -0.00000000000000 1.00000000000000 0.00000000000000
  outer loop
   vertex -1660.32717348410279 739.00000000000000 55.14213793630653
   vertex -1659.97745751406251 739.00000000000000 55.53053686926886
   vertex -1661.73867884183073 739.00000000000000 32.67817283873708
  endloop
 endfacet
 facet normal 0.00000000000000 1.00000000000000 0.00000000000000
  outer loop
   vertex -1664.44536900183448 739.00000000000000 56.48022077295559
   vertex -1669.00000000000000 739.00000000000000 20.19186810031643
   vertex -1669.00000000000000 739.00000000000000 67.00000000000001
  endloop
 endfacet
 facet normal 0.00000000000000 1.00000000000000 0.00000000000000
  outer loop
   vertex -1663.67282651589699 739.00000000000000 58.85786206369349
   vertex -1664.02254248593727 739.00000000000000 58.46946313073117
   vertex -1669.00000000000000 739.00000000000000 67.00000000000001
  endloop
 endfacet
 facet normal 0.00000000000000 1.00000000000000 -0.00000000000000
  outer loop
   vertex -1660.75000000000000 739.00000000000000 59.16506350946116
   vertex -1661.22745751406251 739.00000000000000 59.37764129073792
   vertex -1654.99999999999977 739.00000000000000 67.00000000000001
  endloop
 endfacet
 facet normal -0.00000000000000 1.00000000000000 0.00000000000000
  outer loop
   vertex -1659.55463099816552 739.00000000000000 56.48022077295560
   vertex -1659.50000000000000 739.00000000000000 57.00000000000001
   vertex -1661.73867884183073 739.00000000000000 32.67817283873708
  endloop
 endfacet
 facet normal 0.00000000000000 1.00000000000000 0.00000000000000
  outer loop
   vertex -1664.44536900183448 739.00000000000000 57.51977922704442
   vertex -1664.50000000000000 739.00000000000000 57.00000000000001
   vertex -1669.00000000000000 739.00000000000000 67.00000000000001
  endloop
 endfacet
 facet normal 0.00000000000000 1.00000000000000 0.00000000000000
  outer loop
   vertex -1654.99999999999977 739.00000000000000 67.00000000000001
   vertex -1659.97745751406251 739.00000000000000 58.46946313073118
   vertex -1660.32717348410279 739.00000000000000 58.85786206369349
  endloop
 endfacet
 facet normal 0.00000000000000 1.00000000000000 0.00000000000000
  outer loop
   vertex -1664.28386364410608 739.00000000000000 55.98315839231046
   vertex -1664.02254248593727 739.00000000000000 55.53053686926884
   vertex -1669.00000000000000 739.00000000000000 20.19186810031643
  endloop
 endfacet
 facet normal 0.00000000000000 1.00000000000000 -0.00000000000000
  outer loop
   vertex -1659.71613635589347 739.00000000000000 58.01684160768956
   vertex -1659.97745751406251 739.00000000000000 58.46946313073118
   vertex -1654.99999999999977 739.00000000000000 67.00000000000001
  endloop
 endfacet
 facet normal 0.00000000000000 1.00000000000000 -0.00000000000000
  outer loop
   vertex -1661.22745751406251 739.00000000000000 59.37764129073792
   vertex -1661.73867884183073 739.00000000000000 59.48630473842069
   vertex -1654.99999999999977 739.00000000000000 67.00000000000001
  endloop
 endfacet
 facet normal 1.00000000000000 0.00000000000000 0.00000000000000
  outer loop
   vertex -1653.99999999999977 727.00000000000000 67.00000000000000
   vertex -1653.99999999999977 727.00000000000000 20.19186810031643
   vertex -1653.99999999999977 738.00000000000011 20.19186810031643
  endloop
 endfacet
 facet normal 1.00000000000000 0.00000000000000 -0.00000000000000
  outer loop
   vertex -1653.99999999999977 738.00000000000011 20.19186810031643
   vertex -1653.99999999999977 738.00000000000011 67.00000000000000
   vertex -1653.99999999999977 727.00000000000000 67.00000000000000
  endloop
 endfacet
 facet normal 0.15643446503992 0.98768834059519 -0.00000000000000
  outer loop
   vertex -1654.99999999999977 739.00000000000000 20.19186810031643
   vertex -1654.99999999999977 739.00000000000000 67.00000000000000
   vertex -1654.69098300562473 738.95105651629524 67.00000000000000
  endloop
 endfacet
 facet normal 0.45399049974001 0.89100652418813 -0.00000000000000
  outer loop
   vertex -1654.69098300562473 738.95105651629524 20.19186810031643
   vertex -1654.69098300562473 738.95105651629524 67.00000000000000
   vertex -1654.41221474770714 738.80901699437482 67.00000000000000
  endloop
 endfacet
 facet normal 0.70710678118637 0.70710678118673 -0.00000000000000
  outer loop
   vertex -1654.41221474770714 738.80901699437482 20.19186810031643
   vertex -1654.41221474770714 738.80901699437482 67.00000000000000
   vertex -1654.19098300562473 738.58778525229252 67.00000000000000
  endloop
 endfacet
 facet normal 0.89100652418864 0.45399049973901 -0.00000000000000
  outer loop
   vertex -1654.19098300562473 738.58778525229252 20.19186810031643
   vertex -1654.19098300562473 738.58778525229252 67.00000000000000
   vertex -1654.04894348370476 738.30901699437504 67.00000000000000
  endloop
 endfacet
 facet normal 0.98768834059507 0.15643446504068 -0.00000000000000
  outer loop
   vertex -1654.04894348370476 738.30901699437504 20.19186810031643
   vertex -1654.04894348370476 738.30901699437504 67.00000000000000
   vertex -1653.99999999999977 738.00000000000011 67.00000000000000
  endloop
 endfacet
 facet normal 0.98768834059507 0.15643446504068 0.00000000000000
  outer loop
   vertex -1653.99999999999977 738.00000000000011 67.00000000000000
   vertex -1653.99999999999977 738.00000000000011 20.19186810031643
   vertex -1654.04894348370476 738.30901699437504 20.19186810031643
  endloop
 endfacet
 facet normal 0.89100652418864 0.45399049973901 0.00000000000000
  outer loop
   vertex -1654.04894348370476 738.30901699437504 67.00000000000000
   vertex -1654.04894348370476 738.30901699437504 20.19186810031643
   vertex -1654.19098300562473 738.58778525229252 20.19186810031643
  endloop
 endfacet
 facet normal 0.70710678118637 0.70710678118673 0.00000000000000
  outer loop
   vertex -1654.19098300562473 738.58778525229252 67.00000000000000
   vertex -1654.19098300562473 738.58778525229252 20.19186810031643
   vertex -1654.41221474770714 738.80901699437482 20.19186810031643
  endloop
 endfacet
 facet normal 0.45399049974001 0.89100652418813 0.00000000000000
  outer loop
   vertex -1654.41221474770714 738.80901699437482 67.00000000000000
   vertex -1654.41221474770714 738.80901699437482 20.19186810031643
   vertex -1654.69098300562473 738.95105651629524 20.19186810031643
  endloop
 endfacet
 facet normal 0.15643446503992 0.98768834059519 0.00000000000000
  outer loop
   vertex -1654.69098300562473 738.95105651629524 67.00000000000000
   vertex -1654.69098300562473 738.95105651629524 20.19186810031643
   vertex -1654.99999999999977 739.00000000000000 20.19186810031643
  endloop
 endfacet
endsolid STL file created by Vectorworks 2022 SP6 (Build 679396) (64-Bit)
